<svg width="305" height="305" viewBox="0 0 305 305" fill="none" xmlns="http://www.w3.org/2000/svg">
<path d="M155 300C134.5 300 115.125 296.062 96.875 288.188C78.625 280.312 62.6875 269.562 49.0625 255.938C35.4375 242.312 24.6875 226.375 16.8125 208.125C8.9375 189.875 5 170.5 5 150H27.5C27.5 181.75 38 209.688 59 233.812C80 257.938 106.5 272.125 138.5 276.375L115.625 253.5L130.625 238.5L188.375 296.25C182.875 298 177.349 299.062 171.797 299.438C166.245 299.812 160.646 300 155 300ZM165.875 198V101.625H213.125C217.8 101.625 221.719 103.206 224.881 106.369C228.044 109.531 229.625 113.45 229.625 118.125V181.5C229.625 186.175 228.044 190.094 224.881 193.256C221.719 196.419 217.8 198 213.125 198H165.875ZM80.75 198V179.625H125.75V157.125H96.875V142.5H125.75V120.375H80.75V101.625H128C132.675 101.625 136.594 103.206 139.756 106.369C142.919 109.531 144.5 113.45 144.5 118.125V181.5C144.5 186.175 142.919 190.094 139.756 193.256C136.594 196.419 132.675 198 128 198H80.75ZM184.25 179.625H210.875V120.375H184.25V179.625ZM282.5 150C282.5 118 272.062 90 251.188 66C230.312 42 203.875 27.875 171.875 23.625L194.375 46.125L179.375 61.125L121.625 3.375C127.125 1.625 132.651 0.625 138.203 0.375C143.755 0.125 149.354 0 155 0C175.66 0 195.074 3.9375 213.245 11.8125C231.415 19.6875 247.312 30.4375 260.938 44.0625C274.562 57.6875 285.312 73.5851 293.188 91.7554C301.062 109.926 305 129.34 305 150H282.5Z" fill="#B51F06"/>
</svg>
