<svg width="340" height="445" viewBox="0 0 340 445" fill="none" xmlns="http://www.w3.org/2000/svg">
<path d="M211.217 207C203.989 207 197.812 204.855 192.688 200.566C187.562 196.277 185 191.121 185 185.097C185 179.074 187.574 173.927 192.721 169.656C197.868 165.385 204.055 163.25 211.283 163.25C218.511 163.25 224.688 165.395 229.812 169.684C234.938 173.973 237.5 179.129 237.5 185.153C237.5 191.176 234.926 196.323 229.779 200.594C224.632 204.865 218.445 207 211.217 207ZM308.717 207C301.489 207 295.312 204.855 290.188 200.566C285.062 196.277 282.5 191.121 282.5 185.097C282.5 179.074 285.074 173.927 290.221 169.656C295.368 165.385 301.555 163.25 308.783 163.25C316.011 163.25 322.188 165.395 327.312 169.684C332.438 173.973 335 179.129 335 185.153C335 191.176 332.426 196.323 327.279 200.594C322.132 204.865 315.945 207 308.717 207ZM211.217 128.875C203.989 128.875 197.812 126.73 192.688 122.441C187.562 118.152 185 112.996 185 106.972C185 100.949 187.574 95.8021 192.721 91.5312C197.868 87.2604 204.055 85.125 211.283 85.125C218.511 85.125 224.688 87.2697 229.812 91.5591C234.938 95.8482 237.5 101.004 237.5 107.028C237.5 113.051 234.926 118.198 229.779 122.469C224.632 126.74 218.445 128.875 211.217 128.875ZM308.717 128.875C301.489 128.875 295.312 126.73 290.188 122.441C285.062 118.152 282.5 112.996 282.5 106.972C282.5 100.949 285.074 95.8021 290.221 91.5312C295.368 87.2604 301.555 85.125 308.783 85.125C316.011 85.125 322.188 87.2697 327.312 91.5591C332.438 95.8482 335 101.004 335 107.028C335 113.051 332.426 118.198 327.279 122.469C322.132 126.74 315.945 128.875 308.717 128.875ZM211.217 50.75C203.989 50.75 197.812 48.6053 192.688 44.3159C187.562 40.0268 185 34.8705 185 28.8472C185 22.8241 187.574 17.6771 192.721 13.4062C197.868 9.13542 204.055 7 211.283 7C218.511 7 224.688 9.14468 229.812 13.4341C234.938 17.7232 237.5 22.8795 237.5 28.9028C237.5 34.9259 234.926 40.0729 229.779 44.3438C224.632 48.6146 218.445 50.75 211.217 50.75ZM308.717 50.75C301.489 50.75 295.312 48.6053 290.188 44.3159C285.062 40.0268 282.5 34.8705 282.5 28.8472C282.5 22.8241 285.074 17.6771 290.221 13.4062C295.368 9.13542 301.555 7 308.783 7C316.011 7 322.188 9.14468 327.312 13.4341C332.438 17.7232 335 22.8795 335 28.9028C335 34.9259 332.426 40.0729 327.279 44.3438C322.132 48.6146 315.945 50.75 308.717 50.75Z" fill="white"/>
<path d="M26.2166 200C18.9889 200 12.8125 197.855 7.6875 193.566C2.5625 189.277 0 184.121 0 178.097C0 172.074 2.57362 166.927 7.72087 162.656C12.8679 158.385 19.0554 156.25 26.2834 156.25C33.5111 156.25 39.6875 158.395 44.8125 162.684C49.9375 166.973 52.5 172.129 52.5 178.153C52.5 184.176 49.9264 189.323 44.7791 193.594C39.6321 197.865 33.4446 200 26.2166 200ZM123.717 200C116.489 200 110.312 197.855 105.188 193.566C100.062 189.277 97.5 184.121 97.5 178.097C97.5 172.074 100.074 166.927 105.221 162.656C110.368 158.385 116.555 156.25 123.783 156.25C131.011 156.25 137.188 158.395 142.312 162.684C147.438 166.973 150 172.129 150 178.153C150 184.176 147.426 189.323 142.279 193.594C137.132 197.865 130.945 200 123.717 200ZM26.2166 121.875C18.9889 121.875 12.8125 119.73 7.6875 115.441C2.5625 111.152 0 105.996 0 99.9722C0 93.9491 2.57362 88.8021 7.72087 84.5312C12.8679 80.2604 19.0554 78.125 26.2834 78.125C33.5111 78.125 39.6875 80.2697 44.8125 84.5591C49.9375 88.8482 52.5 94.0045 52.5 100.028C52.5 106.051 49.9264 111.198 44.7791 115.469C39.6321 119.74 33.4446 121.875 26.2166 121.875ZM123.717 121.875C116.489 121.875 110.312 119.73 105.188 115.441C100.062 111.152 97.5 105.996 97.5 99.9722C97.5 93.9491 100.074 88.8021 105.221 84.5312C110.368 80.2604 116.555 78.125 123.783 78.125C131.011 78.125 137.188 80.2697 142.312 84.5591C147.438 88.8482 150 94.0045 150 100.028C150 106.051 147.426 111.198 142.279 115.469C137.132 119.74 130.945 121.875 123.717 121.875ZM26.2166 43.75C18.9889 43.75 12.8125 41.6053 7.6875 37.3159C2.5625 33.0268 0 27.8705 0 21.8472C0 15.8241 2.57362 10.6771 7.72087 6.40625C12.8679 2.13542 19.0554 0 26.2834 0C33.5111 0 39.6875 2.14468 44.8125 6.43406C49.9375 10.7232 52.5 15.8795 52.5 21.9028C52.5 27.9259 49.9264 33.0729 44.7791 37.3438C39.6321 41.6146 33.4446 43.75 26.2166 43.75ZM123.717 43.75C116.489 43.75 110.312 41.6053 105.188 37.3159C100.062 33.0268 97.5 27.8705 97.5 21.8472C97.5 15.8241 100.074 10.6771 105.221 6.40625C110.368 2.13542 116.555 0 123.783 0C131.011 0 137.188 2.14468 142.312 6.43406C147.438 10.7232 150 15.8795 150 21.9028C150 27.9259 147.426 33.0729 142.279 37.3438C137.132 41.6146 130.945 43.75 123.717 43.75Z" fill="#af5c3b"/>
<path d="M216.217 445C208.989 445 202.812 442.855 197.688 438.566C192.562 434.277 190 429.121 190 423.097C190 417.074 192.574 411.927 197.721 407.656C202.868 403.385 209.055 401.25 216.283 401.25C223.511 401.25 229.688 403.395 234.812 407.684C239.938 411.973 242.5 417.129 242.5 423.153C242.5 429.176 239.926 434.323 234.779 438.594C229.632 442.865 223.445 445 216.217 445ZM313.717 445C306.489 445 300.312 442.855 295.188 438.566C290.062 434.277 287.5 429.121 287.5 423.097C287.5 417.074 290.074 411.927 295.221 407.656C300.368 403.385 306.555 401.25 313.783 401.25C321.011 401.25 327.188 403.395 332.312 407.684C337.438 411.973 340 417.129 340 423.153C340 429.176 337.426 434.323 332.279 438.594C327.132 442.865 320.945 445 313.717 445ZM216.217 366.875C208.989 366.875 202.812 364.73 197.688 360.441C192.562 356.152 190 350.996 190 344.972C190 338.949 192.574 333.802 197.721 329.531C202.868 325.26 209.055 323.125 216.283 323.125C223.511 323.125 229.688 325.27 234.812 329.559C239.938 333.848 242.5 339.004 242.5 345.028C242.5 351.051 239.926 356.198 234.779 360.469C229.632 364.74 223.445 366.875 216.217 366.875ZM313.717 366.875C306.489 366.875 300.312 364.73 295.188 360.441C290.062 356.152 287.5 350.996 287.5 344.972C287.5 338.949 290.074 333.802 295.221 329.531C300.368 325.26 306.555 323.125 313.783 323.125C321.011 323.125 327.188 325.27 332.312 329.559C337.438 333.848 340 339.004 340 345.028C340 351.051 337.426 356.198 332.279 360.469C327.132 364.74 320.945 366.875 313.717 366.875ZM216.217 288.75C208.989 288.75 202.812 286.605 197.688 282.316C192.562 278.027 190 272.871 190 266.847C190 260.824 192.574 255.677 197.721 251.406C202.868 247.135 209.055 245 216.283 245C223.511 245 229.688 247.145 234.812 251.434C239.938 255.723 242.5 260.879 242.5 266.903C242.5 272.926 239.926 278.073 234.779 282.344C229.632 286.615 223.445 288.75 216.217 288.75ZM313.717 288.75C306.489 288.75 300.312 286.605 295.188 282.316C290.062 278.027 287.5 272.871 287.5 266.847C287.5 260.824 290.074 255.677 295.221 251.406C300.368 247.135 306.555 245 313.783 245C321.011 245 327.188 247.145 332.312 251.434C337.438 255.723 340 260.879 340 266.903C340 272.926 337.426 278.073 332.279 282.344C327.132 286.615 320.945 288.75 313.717 288.75Z" fill="white"/>
<path d="M26.2166 445C18.9889 445 12.8125 442.855 7.6875 438.566C2.5625 434.277 0 429.121 0 423.097C0 417.074 2.57362 411.927 7.72087 407.656C12.8679 403.385 19.0554 401.25 26.2834 401.25C33.5111 401.25 39.6875 403.395 44.8125 407.684C49.9375 411.973 52.5 417.129 52.5 423.153C52.5 429.176 49.9264 434.323 44.7791 438.594C39.6321 442.865 33.4446 445 26.2166 445ZM123.717 445C116.489 445 110.312 442.855 105.188 438.566C100.062 434.277 97.5 429.121 97.5 423.097C97.5 417.074 100.074 411.927 105.221 407.656C110.368 403.385 116.555 401.25 123.783 401.25C131.011 401.25 137.188 403.395 142.312 407.684C147.438 411.973 150 417.129 150 423.153C150 429.176 147.426 434.323 142.279 438.594C137.132 442.865 130.945 445 123.717 445ZM26.2166 366.875C18.9889 366.875 12.8125 364.73 7.6875 360.441C2.5625 356.152 0 350.996 0 344.972C0 338.949 2.57362 333.802 7.72087 329.531C12.8679 325.26 19.0554 323.125 26.2834 323.125C33.5111 323.125 39.6875 325.27 44.8125 329.559C49.9375 333.848 52.5 339.004 52.5 345.028C52.5 351.051 49.9264 356.198 44.7791 360.469C39.6321 364.74 33.4446 366.875 26.2166 366.875ZM123.717 366.875C116.489 366.875 110.312 364.73 105.188 360.441C100.062 356.152 97.5 350.996 97.5 344.972C97.5 338.949 100.074 333.802 105.221 329.531C110.368 325.26 116.555 323.125 123.783 323.125C131.011 323.125 137.188 325.27 142.312 329.559C147.438 333.848 150 339.004 150 345.028C150 351.051 147.426 356.198 142.279 360.469C137.132 364.74 130.945 366.875 123.717 366.875ZM26.2166 288.75C18.9889 288.75 12.8125 286.605 7.6875 282.316C2.5625 278.027 0 272.871 0 266.847C0 260.824 2.57362 255.677 7.72087 251.406C12.8679 247.135 19.0554 245 26.2834 245C33.5111 245 39.6875 247.145 44.8125 251.434C49.9375 255.723 52.5 260.879 52.5 266.903C52.5 272.926 49.9264 278.073 44.7791 282.344C39.6321 286.615 33.4446 288.75 26.2166 288.75ZM123.717 288.75C116.489 288.75 110.312 286.605 105.188 282.316C100.062 278.027 97.5 272.871 97.5 266.847C97.5 260.824 100.074 255.677 105.221 251.406C110.368 247.135 116.555 245 123.783 245C131.011 245 137.188 247.145 142.312 251.434C147.438 255.723 150 260.879 150 266.903C150 272.926 147.426 278.073 142.279 282.344C137.132 286.615 130.945 288.75 123.717 288.75Z" fill="#af5c3b"/>
</svg>
